<?xml version="1.0" standalone="no"?>
<!DOCTYPE svg PUBLIC "-//W3C//DTD SVG 20010904//EN"
 "http://www.w3.org/TR/2001/REC-SVG-20010904/DTD/svg10.dtd">
<svg version="1.0" xmlns="http://www.w3.org/2000/svg"
 width="625.000000pt" height="625.000000pt" viewBox="0 0 625.000000 625.000000"
 preserveAspectRatio="xMidYMid meet">
<metadata>
Created by potrace 1.11, written by Peter Selinger 2001-2013
</metadata>
<g transform="translate(0.000000,625.000000) scale(0.100000,-0.100000)"
fill="#000000" stroke="none">
<path d="M0 3125 l0 -3125 3125 0 3125 0 0 3125 0 3125 -3125 0 -3125 0 0
-3125z m3279 1739 c422 -62 796 -268 1006 -554 70 -96 140 -246 165 -353 21
-91 21 -104 18 -1092 -3 -920 -5 -1005 -21 -1059 -59 -197 -154 -352 -300
-493 -272 -260 -643 -405 -1072 -420 -314 -11 -599 48 -856 177 -323 161 -534
391 -635 690 l-29 85 0 1035 c0 1172 -6 1075 84 1265 176 370 588 641 1090
720 122 19 419 19 550 -1z"/>
<path d="M2895 4693 c-518 -43 -948 -299 -1097 -655 -76 -181 -76 -392 2 -573
37 -86 126 -208 210 -289 181 -173 411 -283 715 -343 141 -27 454 -25 602 5
816 164 1203 829 801 1374 -236 320 -751 521 -1233 481z m285 -550 c141 -36
271 -136 326 -249 24 -50 28 -72 29 -144 0 -77 -3 -92 -33 -152 -86 -175 -290
-278 -526 -265 -291 15 -504 211 -483 444 26 271 362 451 687 366z"/>
<path d="M2885 3967 c-125 -42 -205 -124 -205 -211 0 -107 107 -198 265 -228
116 -21 253 15 333 87 123 111 85 254 -88 333 -45 21 -73 26 -160 29 -68 2
-119 -2 -145 -10z"/>
<path d="M1740 2563 c0 -586 1 -633 19 -708 24 -99 51 -160 108 -250 285 -441
992 -647 1611 -469 360 104 646 336 759 614 51 128 53 148 53 818 l0 623 -48
-58 c-104 -125 -277 -260 -431 -338 -159 -79 -374 -143 -564 -166 -146 -17
-465 -6 -592 21 -352 75 -667 249 -859 475 l-56 66 0 -628z"/>
</g>
</svg>
